<svg width="92" height="92" fill="none" xmlns="http://www.w3.org/2000/svg"><rect width="92" height="92" rx="24" fill="#fff"/><path d="M56.006 70h-19v6h19v-6Z" fill="#000"/><path d="M56.006 70h-19v6h19v-6Z" fill="url('#paint0_linear_22728_12633')"/><path d="M29.173 16.452 15.738 29.887l3.535 3.535 13.435-13.435-3.535-3.535Z" fill="#000"/><path d="M29.173 16.452 15.738 29.887l3.535 3.535 13.435-13.435-3.535-3.535Z" fill="url('#paint1_linear_22728_12633')"/><path d="m63.113 16.32-3.536 3.535 13.435 13.436 3.536-3.536L63.113 16.32Z" fill="#000"/><path d="m63.113 16.32-3.536 3.535 13.435 13.436 3.536-3.536L63.113 16.32Z" fill="url('#paint2_linear_22728_12633')"/><path d="m58.556 23.708-2.69-.114a5.056 5.056 0 0 0-4.284 1.432l-5.505 5.505-5.753-5.754a3.84 3.84 0 0 0-3.858-.909 3.619 3.619 0 0 1-3.61-.903L32 22.11 21.395 32.718l1.727 1.727-.113 2.692a5.056 5.056 0 0 0 1.431 4.283l9.613 9.612a4.985 4.985 0 0 1 1.69-3.259l-2.995-2.995.707-.707 3.129 3.129a4.95 4.95 0 0 1 1.422-.54v-3.695l-1.722-1.722.707-.707 1.015 1.015V36.2a3.61 3.61 0 0 1 3.142-3.625 3.51 3.51 0 0 1 .991.045l-1.23-1.23.708-.707 1.796 1.796a3.542 3.542 0 0 1 3.404-1.908 3.602 3.602 0 0 1 3.174 3.332 3.558 3.558 0 0 1 1.825-.332 3.62 3.62 0 0 1 3.19 3.663v3.424a5.003 5.003 0 0 1 3.816 3.625l2.788-2.788.708.707-3.316 3.315c0 .014.004.027.004.04v3.32a3.962 3.962 0 0 0 2.379-1.128l6.84-6.84a3.84 3.84 0 0 0 .909-3.858 3.618 3.618 0 0 1 .903-3.611l.854-.854L60.284 21.98l-1.728 1.728Z" fill="#000"/><path d="m58.556 23.708-2.69-.114a5.056 5.056 0 0 0-4.284 1.432l-5.505 5.505-5.753-5.754a3.84 3.84 0 0 0-3.858-.909 3.619 3.619 0 0 1-3.61-.903L32 22.11 21.395 32.718l1.727 1.727-.113 2.692a5.056 5.056 0 0 0 1.431 4.283l9.613 9.612a4.985 4.985 0 0 1 1.69-3.259l-2.995-2.995.707-.707 3.129 3.129a4.95 4.95 0 0 1 1.422-.54v-3.695l-1.722-1.722.707-.707 1.015 1.015V36.2a3.61 3.61 0 0 1 3.142-3.625 3.51 3.51 0 0 1 .991.045l-1.23-1.23.708-.707 1.796 1.796a3.542 3.542 0 0 1 3.404-1.908 3.602 3.602 0 0 1 3.174 3.332 3.558 3.558 0 0 1 1.825-.332 3.62 3.62 0 0 1 3.19 3.663v3.424a5.003 5.003 0 0 1 3.816 3.625l2.788-2.788.708.707-3.316 3.315c0 .014.004.027.004.04v3.32a3.962 3.962 0 0 0 2.379-1.128l6.84-6.84a3.84 3.84 0 0 0 .909-3.858 3.618 3.618 0 0 1 .903-3.611l.854-.854L60.284 21.98l-1.728 1.728Z" fill="url('#paint3_linear_22728_12633')"/><path d="M43.88 35.69a2.49 2.49 0 0 0-2.726-2.188 2.598 2.598 0 0 0-2.242 2.63v11.357a4 4 0 0 0-4 4v9.673a3.84 3.84 0 0 0 2.085 3.37 3.62 3.62 0 0 1 1.915 3.193v1.207h15v-2.444l1.984-1.822a5.058 5.058 0 0 0 2.016-4.04V45.488a4 4 0 0 0-4-4v-4.323a2.621 2.621 0 0 0-2.276-2.668 2.492 2.492 0 0 0-2.682 2.1h.458V52.04h-1V36.597h.5v-2.431a2.621 2.621 0 0 0-2.276-2.668 2.501 2.501 0 0 0-2.724 2.49v1.702h.5v15.444h-1V35.69h.468Zm-4.569 20.35h-1v-8h1v8ZM53.412 41.8h1v10.443h-1V41.8Z" fill="#000"/><path d="M43.88 35.69a2.49 2.49 0 0 0-2.726-2.188 2.598 2.598 0 0 0-2.242 2.63v11.357a4 4 0 0 0-4 4v9.673a3.84 3.84 0 0 0 2.085 3.37 3.62 3.62 0 0 1 1.915 3.193v1.207h15v-2.444l1.984-1.822a5.058 5.058 0 0 0 2.016-4.04V45.488a4 4 0 0 0-4-4v-4.323a2.621 2.621 0 0 0-2.276-2.668 2.492 2.492 0 0 0-2.682 2.1h.458V52.04h-1V36.597h.5v-2.431a2.621 2.621 0 0 0-2.276-2.668 2.501 2.501 0 0 0-2.724 2.49v1.702h.5v15.444h-1V35.69h.468Zm-4.569 20.35h-1v-8h1v8ZM53.412 41.8h1v10.443h-1V41.8Z" fill="url('#paint4_linear_22728_12633')"/><defs><linearGradient id="paint0_linear_22728_12633" x1="46.506" y1="70" x2="46.506" y2="76" gradientUnits="userSpaceOnUse"><stop stop-color="#EF8080"/><stop offset="1" stop-color="#F0145A"/></linearGradient><linearGradient id="paint1_linear_22728_12633" x1="22.455" y1="23.169" x2="25.991" y2="26.705" gradientUnits="userSpaceOnUse"><stop stop-color="#EF8080"/><stop offset="1" stop-color="#F0145A"/></linearGradient><linearGradient id="paint2_linear_22728_12633" x1="61.345" y1="18.088" x2="74.78" y2="31.523" gradientUnits="userSpaceOnUse"><stop stop-color="#EF8080"/><stop offset="1" stop-color="#F0145A"/></linearGradient><linearGradient id="paint3_linear_22728_12633" x1="46.143" y1="21.98" x2="46.143" y2="51.032" gradientUnits="userSpaceOnUse"><stop stop-color="#EF8080"/><stop offset="1" stop-color="#F0145A"/></linearGradient><linearGradient id="paint4_linear_22728_12633" x1="46.412" y1="31.488" x2="46.412" y2="68.932" gradientUnits="userSpaceOnUse"><stop stop-color="#EF8080"/><stop offset="1" stop-color="#F0145A"/></linearGradient></defs></svg>