<svg aria-hidden="true" style="width:0;height:0;position:absolute;overflow:hidden" xmlns="http://www.w3.org/2000/svg"><defs><symbol id="icon-logo-facebook" viewBox="0 0 33 32"><path d="M32.421 16.098c0-8.891-7.163-16.098-16-16.098s-16 7.207-16 16.098c0 8.035 5.851 14.695 13.5 15.902V20.751H9.859v-4.653h4.062v-3.547c0-4.035 2.389-6.263 6.043-6.263 1.751 0 3.582.314 3.582.314v3.962h-2.018c-1.988 0-2.607 1.241-2.607 2.514v3.02h4.437l-.709 4.653h-3.728V32c7.649-1.208 13.5-7.867 13.5-15.902z"/></symbol><symbol id="icon-close" viewBox="0 0 32 32"><path stroke-width="2" d="m7 7 18 18M25 7 7 25"/></symbol><symbol id="icon-close-modal" viewBox="0 0 32 32"><path d="m7 7 18 18M25 7 7 25"/></symbol><symbol id="icon-court" viewBox="0 0 32 32"><path d="M20.176 10.194a.936.936 0 0 0 1.325 0l1.304-1.304a.939.939 0 0 0 0-1.325l-3.291-3.29a.936.936 0 0 0-1.324 0l-1.305 1.304a.937.937 0 0 0 0 1.324l3.291 3.292zM12.383 18.134a.94.94 0 0 0 1.324 0l1.304-1.305a.937.937 0 0 0 0-1.325l-3.291-3.291a.938.938 0 0 0-1.325 0l-1.304 1.304a.938.938 0 0 0 0 1.325l3.292 3.292zM27.324 18.447l-1.323-1.325a.937.937 0 0 0-1.324 0l-.581.58-5.602-5.604 1.213-1.214-3.366-3.365-3.947 3.946 3.366 3.367 1.189-1.187 5.601 5.603-.524.524a.935.935 0 0 0 0 1.324l1.323 1.324a.935.935 0 0 0 1.325 0l2.649-2.648a.937.937 0 0 0 0-1.325zM17.538 22.471c0-.599-.486-1.087-1.087-1.087H7.967c-.6 0-1.087.487-1.087 1.087v1.764H4.499v3.695h15.279v-3.695h-2.241v-1.764z"/></symbol><symbol id="icon-protection" viewBox="0 0 32 32"><path d="M20.616 18.848c1.176 0 2.339.294 3.363.851.186.1.357.22.531.335 1.681-3.29 2.568-6.769 2.568-10.164 0-.191 0-.388-.006-.585a.62.62 0 0 0-.486-.578c-3.717-.812-7.083-2.825-9.729-5.815l-.394-.449a.605.605 0 0 0-.462-.209c-.191-.025-.338.068-.455.197l-.603.665c-2.511 2.763-5.674 4.671-9.145 5.52l-.4.098a.605.605 0 0 0-.468.578c-.222 8.652 4.886 14.874 7.089 17.151a20.738 20.738 0 0 0 1.894 1.724 7.117 7.117 0 0 1-.374-2.241c0-3.902 3.175-7.077 7.077-7.077z"/><path d="M23.391 20.781a5.82 5.82 0 0 0-2.775-.702 5.851 5.851 0 0 0-5.846 5.846 5.8 5.8 0 0 0 .862 3.065 5.818 5.818 0 0 0 4.985 2.782 5.856 5.856 0 0 0 5.846-5.846 5.833 5.833 0 0 0-3.071-5.145zm.219 4.366-4.572 3.558-1.561-2.442a.616.616 0 0 1 1.037-.663l.834 1.304 3.507-2.729a.615.615 0 1 1 .756.972z"/></symbol><symbol id="icon-trust" viewBox="0 0 32 32"><path d="M21.003 28h-9.5v3h9.5v-3z"/><path d="M21.003 28h-9.5v3h9.5v-3zM7.586 1.226.868 7.944l1.768 1.768 6.718-6.718-1.768-1.768z"/><path d="M7.586 1.226.868 7.944l1.768 1.768 6.718-6.718-1.768-1.768zM24.556 1.161l-1.768 1.768 6.718 6.718 1.768-1.768-6.718-6.718z"/><path d="m24.556 1.161-1.768 1.768 6.718 6.718 1.768-1.768-6.718-6.718zM22.278 4.853l-1.346-.057a2.54 2.54 0 0 0-2.141.716l-2.752 2.752-2.877-2.877a1.918 1.918 0 0 0-1.929-.454 1.807 1.807 0 0 1-1.805-.452l-.427-.427-5.303 5.303.864.864-.057 1.346a2.534 2.534 0 0 0 .716 2.141l4.806 4.806a2.492 2.492 0 0 1 .845-1.629l-1.498-1.498.354-.354 1.564 1.564c.222-.126.462-.217.711-.27V14.48l-.861-.861.354-.354.508.508v-2.675a1.8 1.8 0 0 1 1.571-1.812c.165-.016.332-.008.495.022l-.615-.615.354-.354.898.898a1.777 1.777 0 0 1 1.702-.954 1.805 1.805 0 0 1 1.588 1.666c.284-.135.599-.192.913-.166a1.808 1.808 0 0 1 1.595 1.832v1.712a2.504 2.504 0 0 1 1.908 1.812l1.394-1.394.354.354-1.658 1.658.002.02v1.66a1.98 1.98 0 0 0 1.189-.564l3.42-3.42a1.918 1.918 0 0 0 .454-1.929 1.807 1.807 0 0 1 .452-1.805l.427-.427-5.303-5.303-.864.864z"/><path d="m22.278 4.853-1.346-.057a2.54 2.54 0 0 0-2.141.716l-2.752 2.752-2.877-2.877a1.918 1.918 0 0 0-1.929-.454 1.807 1.807 0 0 1-1.805-.452l-.427-.427-5.303 5.303.864.864-.057 1.346a2.534 2.534 0 0 0 .716 2.141l4.806 4.806a2.492 2.492 0 0 1 .845-1.629l-1.498-1.498.354-.354 1.564 1.564c.222-.126.462-.217.711-.27V14.48l-.861-.861.354-.354.508.508v-2.675a1.8 1.8 0 0 1 1.571-1.812c.165-.016.332-.008.495.022l-.615-.615.354-.354.898.898a1.777 1.777 0 0 1 1.702-.954 1.805 1.805 0 0 1 1.588 1.666c.284-.135.599-.192.913-.166a1.808 1.808 0 0 1 1.595 1.832v1.712a2.504 2.504 0 0 1 1.908 1.812l1.394-1.394.354.354-1.658 1.658.002.02v1.66a1.98 1.98 0 0 0 1.189-.564l3.42-3.42a1.918 1.918 0 0 0 .454-1.929 1.807 1.807 0 0 1 .452-1.805l.427-.427-5.303-5.303-.864.864z"/><path d="M14.94 10.845a1.242 1.242 0 0 0-1.363-1.094 1.303 1.303 0 0 0-1.121 1.315v5.679a2 2 0 0 0-2 2v4.837a1.918 1.918 0 0 0 1.043 1.686 1.811 1.811 0 0 1 .958 1.596v.604h7.5v-1.222l.992-.911a2.532 2.532 0 0 0 1.008-2.021v-7.568a2 2 0 0 0-2-2v-2.161a1.307 1.307 0 0 0-1.138-1.334 1.245 1.245 0 0 0-1.341 1.05h.229v7.722h-.5v-7.722h.25v-1.216a1.307 1.307 0 0 0-1.138-1.334 1.254 1.254 0 0 0-1.256.741c-.07.158-.106.331-.106.504v.851h.25v7.722h-.5v-7.722h.234zM12.656 21.02h-.5v-4h.5v4zm7.05-7.121h.5v5.222h-.5v-5.222z"/><path d="M14.94 10.845a1.242 1.242 0 0 0-1.363-1.094 1.303 1.303 0 0 0-1.121 1.315v5.679a2 2 0 0 0-2 2v4.837a1.918 1.918 0 0 0 1.043 1.686 1.811 1.811 0 0 1 .958 1.596v.604h7.5v-1.222l.992-.911a2.532 2.532 0 0 0 1.008-2.021v-7.568a2 2 0 0 0-2-2v-2.161a1.307 1.307 0 0 0-1.138-1.334 1.245 1.245 0 0 0-1.341 1.05h.229v7.722h-.5v-7.722h.25v-1.216a1.307 1.307 0 0 0-1.138-1.334 1.254 1.254 0 0 0-1.256.741c-.07.158-.106.331-.106.504v.851h.25v7.722h-.5v-7.722h.234zM12.656 21.02h-.5v-4h.5v4zm7.05-7.121h.5v5.222h-.5v-5.222z"/></symbol><symbol id="icon-coprorate" viewBox="0 0 32 32"><path d="M30.263 18.864a2.807 2.807 0 0 0-3.169.717l-2.35-.973c.247-.827.38-1.702.38-2.607s-.133-1.781-.38-2.607l2.35-.973a2.803 2.803 0 0 0 3.169.717 2.815 2.815 0 0 0 1.522-3.675 2.805 2.805 0 0 0-3.675-1.522 2.818 2.818 0 0 0-1.732 2.747l-2.353.975a9.19 9.19 0 0 0-3.687-3.687l.974-2.352a2.805 2.805 0 0 0 2.747-1.733A2.816 2.816 0 0 0 21.461.002a2.805 2.805 0 0 0-2.599 1.737 2.817 2.817 0 0 0 .718 3.167l-.974 2.351c-.827-.247-1.702-.38-2.607-.38s-1.781.133-2.607.38l-.974-2.351a2.818 2.818 0 0 0 .718-3.167A2.805 2.805 0 0 0 9.461.217a2.815 2.815 0 0 0-1.522 3.675 2.805 2.805 0 0 0 2.747 1.733l.974 2.352a9.19 9.19 0 0 0-3.687 3.687l-2.353-.975a2.818 2.818 0 0 0-2.808-2.962A2.805 2.805 0 0 0 .213 9.464a2.816 2.816 0 0 0 2.598 3.89c.816 0 1.569-.348 2.093-.932l2.35.973c-.247.827-.38 1.702-.38 2.607s.133 1.781.38 2.607l-2.35.973a2.807 2.807 0 0 0-3.169-.717A2.815 2.815 0 0 0 .213 22.54a2.805 2.805 0 0 0 3.675 1.522 2.818 2.818 0 0 0 1.732-2.747l2.353-.975a9.19 9.19 0 0 0 3.687 3.687l-.974 2.352a2.805 2.805 0 0 0-2.747 1.733 2.816 2.816 0 0 0 2.598 3.89 2.805 2.805 0 0 0 2.599-1.737 2.817 2.817 0 0 0-.718-3.167l.974-2.351c.827.247 1.702.38 2.607.38s1.781-.133 2.607-.38l.974 2.351a2.818 2.818 0 0 0-.718 3.167 2.805 2.805 0 0 0 3.675 1.522 2.815 2.815 0 0 0 1.522-3.675 2.805 2.805 0 0 0-2.747-1.733l-.974-2.352a9.19 9.19 0 0 0 3.687-3.687l2.353.975a2.818 2.818 0 0 0 2.808 2.962 2.805 2.805 0 0 0 2.599-1.737 2.815 2.815 0 0 0-1.522-3.675zM16 23.25c-3.998 0-7.25-3.252-7.25-7.25S12.002 8.75 16 8.75s7.25 3.252 7.25 7.25-3.252 7.25-7.25 7.25z"/><path d="M30.263 18.864a2.807 2.807 0 0 0-3.169.717l-2.35-.973c.247-.827.38-1.702.38-2.607s-.133-1.781-.38-2.607l2.35-.973a2.803 2.803 0 0 0 3.169.717 2.815 2.815 0 0 0 1.522-3.675 2.805 2.805 0 0 0-3.675-1.522 2.818 2.818 0 0 0-1.732 2.747l-2.353.975a9.19 9.19 0 0 0-3.687-3.687l.974-2.352a2.805 2.805 0 0 0 2.747-1.733A2.816 2.816 0 0 0 21.461.002a2.805 2.805 0 0 0-2.599 1.737 2.817 2.817 0 0 0 .718 3.167l-.974 2.351c-.827-.247-1.702-.38-2.607-.38s-1.781.133-2.607.38l-.974-2.351a2.818 2.818 0 0 0 .718-3.167A2.805 2.805 0 0 0 9.461.217a2.815 2.815 0 0 0-1.522 3.675 2.805 2.805 0 0 0 2.747 1.733l.974 2.352a9.19 9.19 0 0 0-3.687 3.687l-2.353-.975a2.818 2.818 0 0 0-2.808-2.962A2.805 2.805 0 0 0 .213 9.464a2.816 2.816 0 0 0 2.598 3.89c.816 0 1.569-.348 2.093-.932l2.35.973c-.247.827-.38 1.702-.38 2.607s.133 1.781.38 2.607l-2.35.973a2.807 2.807 0 0 0-3.169-.717A2.815 2.815 0 0 0 .213 22.54a2.805 2.805 0 0 0 3.675 1.522 2.818 2.818 0 0 0 1.732-2.747l2.353-.975a9.19 9.19 0 0 0 3.687 3.687l-.974 2.352a2.805 2.805 0 0 0-2.747 1.733 2.816 2.816 0 0 0 2.598 3.89 2.805 2.805 0 0 0 2.599-1.737 2.817 2.817 0 0 0-.718-3.167l.974-2.351c.827.247 1.702.38 2.607.38s1.781-.133 2.607-.38l.974 2.351a2.818 2.818 0 0 0-.718 3.167 2.805 2.805 0 0 0 3.675 1.522 2.815 2.815 0 0 0 1.522-3.675 2.805 2.805 0 0 0-2.747-1.733l-.974-2.352a9.19 9.19 0 0 0 3.687-3.687l2.353.975a2.818 2.818 0 0 0 2.808 2.962 2.805 2.805 0 0 0 2.599-1.737 2.815 2.815 0 0 0-1.522-3.675zM16 23.25c-3.998 0-7.25-3.252-7.25-7.25S12.002 8.75 16 8.75s7.25 3.252 7.25 7.25-3.252 7.25-7.25 7.25z"/><path d="M16 10.625c-2.964 0-5.375 2.411-5.375 5.375s2.411 5.375 5.375 5.375 5.375-2.411 5.375-5.375-2.411-5.375-5.375-5.375zm.938 7.438h-1.875v-4.125h1.875v4.125z"/><path d="M16 10.625c-2.964 0-5.375 2.411-5.375 5.375s2.411 5.375 5.375 5.375 5.375-2.411 5.375-5.375-2.411-5.375-5.375-5.375zm.938 7.438h-1.875v-4.125h1.875v4.125z"/></symbol><symbol id="icon-support" viewBox="0 0 32 32"><path d="M26.726 17.538v8.648c0 1.547-1.212 2.814-2.694 2.814H7.985c-1.482 0-2.694-1.268-2.694-2.814v-8.648h8.333v3.755l2.384 1.567 2.384-1.567v-3.755h8.333z"/><path d="M14.459 17.538v3.304l1.549 1.018 1.549-1.018v-3.304h-3.098zM6.037 7.571H25.98c.941 0 1.71.854 1.71 1.898v5.127c0 1.044-.769 1.898-1.71 1.898H6.037c-.941 0-1.71-.854-1.71-1.898V9.469c0-1.044.769-1.898 1.71-1.898zM11.856 2.978h8.305c.772 0 1.403.631 1.403 1.403V6.57h-1.779V5.277a.636.636 0 0 0-.634-.635h-6.286a.636.636 0 0 0-.634.635V6.57h-1.779V4.381c0-.772.631-1.403 1.403-1.403z"/></symbol><symbol id="icon-ecommerce" viewBox="0 0 32 32"><path d="M11.867 14.063a1 1 0 0 0 1-1v-3.9c0-1.744 1.418-3.162 3.162-3.162s3.163 1.419 3.163 3.162v3.9a1 1 0 0 0 2 0v-3.9c0-2.846-2.316-5.162-5.162-5.162s-5.162 2.316-5.162 5.162v3.9a1 1 0 0 0 1 1z"/><path d="M27.5 11.815h-5.308v1.247c0 1.103-.897 2-2 2s-2-.897-2-2v-1.247h-4.325v1.247c0 1.103-.897 2-2 2s-2-.897-2-2v-1.247H4.5c-.276 0-.447.217-.381.486l3.499 14.248C7.829 27.35 8.672 28 9.5 28h13c.829 0 1.671-.649 1.883-1.45l3.498-14.248c.066-.268-.105-.486-.381-.486z"/><path d="M14.3 17.2a.7.7 0 1 1 1.4 0V20a.7.7 0 1 1 1.4 0v.838c.006-.381.317-1.188.7-1.188a.7.7 0 0 1 .7.7s.021.521.067.552c.112-.237.354-.902.633-.902a.7.7 0 0 1 .7.7v3.5a1.4 1.4 0 0 1-1.4 1.4h-2.34a2.8 2.8 0 0 1-1.98-.82l-1.105-1.105-1.575-.705c.003-.668.526-.87 1.05-.87.451 0 .857.07 1.75.525V17.2z"/></symbol><symbol id="icon-slash" viewBox="0 0 15 32"><path d="M10.742 0h3.966L4.376 32H.41L10.742 0z"/></symbol><symbol id="icon-logo-legal" viewBox="0 0 68 32"><path fill="#f0145a" style="fill:var(--color1,#f0145a)" d="M2.563 0H0v18.514h2.563v-6.869c0-1.162.289-2.079.867-2.724S4.8 7.94 5.78 7.94c.842 0 1.546.31 2.111.904.565.607.854 1.368.854 2.285v7.398h2.576v-7.398c0-1.704-.465-3.047-1.395-4.054S7.777 5.564 6.294 5.564c-.427 0-.854.052-1.269.168-.427.116-.767.245-1.043.387s-.54.297-.779.478-.402.31-.478.387-.138.129-.163.168V-.001z"/><path fill="#fff" style="fill:var(--color2,#fff)" d="M17.053 0H14.41v18.499h2.643V0zM32.64 13.081l.132-1.321c0-1.771-.581-3.251-1.771-4.44s-2.669-1.771-4.44-1.771-3.303.634-4.572 1.903c-1.268 1.268-1.903 2.775-1.903 4.572 0 1.85.661 3.435 1.956 4.757s2.854 1.982 4.651 1.982c.687 0 1.321-.106 1.956-.291.634-.211 1.163-.423 1.533-.634.396-.238.793-.502 1.136-.793s.581-.502.687-.634c.106-.132.185-.211.238-.291l-1.718-1.718-.396.502c-.264.317-.713.634-1.348.978a4.422 4.422 0 0 1-2.088.502c-1.031 0-1.903-.317-2.643-.978s-1.189-1.427-1.321-2.326h9.91zm-6.078-5.286c.978 0 1.771.291 2.431.846.634.581 1.031 1.295 1.189 2.193h-7.347c.238-.899.661-1.612 1.321-2.193.634-.555 1.453-.846 2.405-.846zM44.964 17.732c0 1.163-.343 2.114-1.057 2.854-.687.713-1.559 1.084-2.643 1.084-.476 0-.951-.079-1.401-.212s-.793-.291-1.083-.476a5.924 5.924 0 0 1-.819-.608l-.476-.476c-.08-.08-.132-.159-.185-.211l-1.718 1.718.211.264c.132.185.37.423.687.687.317.238.687.502 1.11.766.423.238.951.449 1.612.634s1.348.291 2.061.291c1.797 0 3.277-.608 4.519-1.823 1.216-1.242 1.823-2.722 1.823-4.519V5.813h-2.643v1.321l-.449-.396c-.291-.264-.74-.529-1.374-.793s-1.321-.396-2.008-.396c-1.612 0-2.986.608-4.175 1.85s-1.771 2.722-1.771 4.492c0 1.771.581 3.251 1.771 4.493s2.563 1.85 4.175 1.85c.449 0 .872-.053 1.321-.159.423-.132.766-.264 1.057-.396s.555-.291.793-.476.423-.317.476-.37l.185-.185v1.083zm-7.135-5.84c0-1.11.344-2.035 1.057-2.801s1.559-1.163 2.511-1.163c.951 0 1.797.396 2.51 1.163.687.766 1.057 1.691 1.057 2.801s-.37 2.035-1.057 2.801c-.714.766-1.559 1.163-2.51 1.163s-1.797-.396-2.511-1.163-1.057-1.691-1.057-2.801zM61.401 18.498v-8.192c0-1.348-.502-2.484-1.48-3.383-.978-.925-2.246-1.374-3.805-1.374-.608 0-1.216.079-1.797.238-.581.185-1.057.37-1.401.581s-.687.449-1.004.74a8.339 8.339 0 0 0-.608.555c-.079.106-.159.185-.211.264l1.718 1.718.344-.449c.211-.291.581-.555 1.136-.846s1.163-.423 1.823-.423c.766 0 1.401.238 1.903.687s.74 1.031.74 1.691l-4.625.793c-1.136.185-2.061.634-2.695 1.348-.661.713-1.004 1.586-1.004 2.616 0 .978.423 1.824 1.268 2.563.872.766 1.929 1.136 3.224 1.136a4.27 4.27 0 0 0 1.295-.185c.449-.106.793-.238 1.083-.37s.555-.291.793-.476.396-.317.502-.37c.079-.079.132-.159.159-.185v1.321h2.643zm-6.078-2.114c-.687 0-1.242-.159-1.639-.476-.423-.317-.608-.687-.608-1.11 0-.449.132-.846.423-1.136s.687-.502 1.163-.581l4.096-.661v.264c0 1.189-.291 2.088-.899 2.748-.608.634-1.453.951-2.537.951zM67.233 0H64.59v18.499h2.643V0zM0 27.472h.827v2.9h1.792v.674H0v-3.574zM8.017 30.28H6.358l-.317.766h-.847l1.593-3.574h.817l1.598 3.574h-.868l-.317-.766zm-.26-.628-.567-1.368-.567 1.368h1.133zM17.331 27.472l-1.169 3.574h-.888l-.786-2.42-.812 2.42h-.883l-1.174-3.574h.858l.807 2.512.842-2.512h.766l.817 2.532.832-2.532h.791zM26.129 31.107a2.08 2.08 0 0 1-.99-.235 1.81 1.81 0 0 1-.694-.659c-.167-.282-.25-.601-.25-.955s.083-.67.25-.95c.17-.283.402-.502.694-.659.296-.16.628-.24.995-.24.31 0 .589.054.837.163.252.109.463.265.633.47l-.531.49a1.143 1.143 0 0 0-.899-.419c-.221 0-.419.049-.592.148-.174.095-.31.23-.408.403-.095.174-.143.371-.143.592s.048.419.143.592c.099.174.235.31.408.408.174.095.371.143.592.143.357 0 .657-.141.899-.424l.531.49c-.17.208-.381.366-.633.475s-.533.163-.842.163zM32.371 31.107c-.371 0-.706-.08-1.006-.24a1.81 1.81 0 0 1-.699-.659c-.167-.282-.25-.599-.25-.95s.083-.665.25-.945a1.8 1.8 0 0 1 .699-.664c.3-.16.635-.24 1.006-.24s.705.08 1.001.24a1.794 1.794 0 0 1 .954 1.609c0 .351-.085.667-.255.95-.17.279-.403.499-.699.659s-.63.24-1.001.24zm0-.704c.211 0 .402-.048.572-.143.17-.099.303-.235.398-.408.099-.174.148-.371.148-.592s-.049-.419-.148-.592a1.003 1.003 0 0 0-.398-.403c-.17-.099-.361-.148-.572-.148s-.402.049-.572.148a1.04 1.04 0 0 0-.403.403c-.095.174-.143.371-.143.592s.048.419.143.592a1.074 1.074 0 0 0 .975.551zM40.753 31.046l-.005-2.144-1.052 1.766h-.373l-1.047-1.72v2.098H37.5v-3.574h.684l1.338 2.221 1.317-2.221h.679l.01 3.574h-.776zM46.476 27.472c.316 0 .59.053.822.158.235.105.415.255.541.449s.189.424.189.689c0 .262-.063.492-.189.689a1.218 1.218 0 0 1-.541.449 2.024 2.024 0 0 1-.822.153h-.72v.985h-.827V27.47h1.547zm-.046 1.915c.248 0 .437-.053.567-.158a.568.568 0 0 0 .194-.459c0-.201-.065-.354-.194-.459-.129-.109-.318-.163-.567-.163h-.674v1.241h.674zM53.345 30.28h-1.659l-.316.766h-.847l1.593-3.574h.817l1.598 3.574h-.868l-.316-.766zm-.26-.628-.567-1.368-.567 1.368h1.133zM60.73 27.472v3.574h-.679l-1.782-2.17v2.17h-.817v-3.574h.684l1.777 2.17v-2.17h.817zM65.844 29.78v1.266h-.827V29.77l-1.384-2.297h.878l.955 1.588.955-1.588h.812l-1.389 2.308z"/></symbol><symbol id="icon-h" viewBox="0 0 20 32"><path style="fill:var(--color1,#000)" d="M5.87 13.617h7.488c2.151 0 3.946.918 5.063 2.468s1.15 4.138.499 6.162l-.832 2.584c-.347 1.079-1.974 6.182-2.291 7.168h-4.085s.062.055 3.475-10.553c.301-.936.473-2.456 0-3.113s-1.27-1.046-2.325-1.046H6.741a2.779 2.779 0 0 0-2.639 1.936l1.767-5.607z"/><path fill="#f0145a" style="fill:var(--color2,#f0145a)" d="M.032 32h-3.994C-.563 21.327 2.875 10.667 6.294 0h3.988l-.051.16C4.699 17.182 6.586 11.434.032 32z"/></symbol><symbol id="icon-arrow" viewBox="0 0 30 32"><path stroke-width="4.923" d="M8.615 4.923 19.692 16 8.615 27.077"/></symbol><symbol id="icon-arrow2" viewBox="0 0 30 32"><path stroke-width="4.923" d="M6.95 1.923 21.027 16 6.95 30.077"/></symbol><symbol id="icon-arrow-down" viewBox="0 0 53 32"><path stroke-width="5.333" d="m2.667 2.667 24 24 24-24"/></symbol><symbol id="icon-star" viewBox="0 0 32 32"><path d="M16.119.681C7.695.681.841 7.535.841 15.959s6.854 15.279 15.278 15.279 15.278-6.854 15.278-15.279C31.398 7.535 24.544.681 16.119.681zm8.442 14.16v.001l-4.423 3.2 1.703 5.206a.823.823 0 0 1-1.264.925l-4.457-3.224-4.457 3.224a.824.824 0 0 1-1.264-.925l1.704-5.206-4.423-3.201a.822.822 0 0 1 .482-1.489h5.475l1.695-5.182a.824.824 0 0 1 1.575 0l1.695 5.182h5.475a.822.822 0 0 1 .482 1.489z"/></symbol><symbol id="icon-bag" viewBox="0 0 38 32"><path d="M20.701 19.392v-.812a1.791 1.791 0 1 0-3.583 0v.812a1.792 1.792 0 1 0 3.583 0z"/><path d="M21.93 20.383c-.397 1.3-1.593 2.254-3.02 2.254s-2.624-.954-3.021-2.254H3.548a5.048 5.048 0 0 1-2.175-.495v8.194c0 1.6 1.309 2.909 2.909 2.909h29.255c1.6 0 2.909-1.309 2.909-2.909v-8.193a5.051 5.051 0 0 1-2.175.495l-12.34-.001zM34.149 5.669h-6.983c-.422-2.637-2.706-4.66-5.46-4.66h-5.595c-2.754 0-5.038 2.023-5.46 4.66H3.669C2.002 5.669.638 6.978.638 8.578v6.715a2.91 2.91 0 0 0 2.909 2.909h12.204a3.156 3.156 0 0 1 .969-2.133c.017-.017.038-.03.056-.046.126-.116.257-.225.4-.319.051-.034.109-.057.162-.088.118-.068.234-.138.361-.191.1-.041.207-.065.312-.097.09-.027.176-.063.27-.081a3.17 3.17 0 0 1 1.256 0c.093.019.179.055.269.081.105.031.212.055.312.097.127.052.242.122.36.19.054.031.112.055.164.089.143.094.273.203.399.319.018.017.039.03.057.047.569.544.927 1.296.969 2.133h12.204a2.91 2.91 0 0 0 2.909-2.909V8.579c.001-1.601-1.363-2.911-3.03-2.911zm-20.697 0a2.808 2.808 0 0 1 2.66-1.937h5.595c1.244 0 2.289.817 2.66 1.937H13.453z"/></symbol><symbol id="icon-flag" viewBox="0 0 27 32"><path d="M26.416 4.92a.938.938 0 0 0-.683-.289c-.131 0-.407.107-.826.319s-.866.449-1.335.713c-.47.262-1.027.5-1.669.713s-1.236.319-1.783.319c-.505 0-.951-.096-1.335-.289-1.274-.597-2.382-1.042-3.322-1.335s-1.952-.441-3.035-.441c-1.87 0-3.999.608-6.387 1.822-.493.246-.846.436-1.074.575L4.74 5.364a2.41 2.41 0 0 0 .843-1.826 2.428 2.428 0 1 0-4.856 0 2.42 2.42 0 0 0 1.161 2.063l3.28 24.051a1.428 1.428 0 1 0 2.831-.387l-1.318-9.667c2.392-1.187 4.461-1.785 6.202-1.785.739 0 1.459.11 2.162.333s1.287.466 1.753.728c.465.263 1.014.506 1.646.728a5.61 5.61 0 0 0 1.874.334c1.558 0 3.423-.587 5.598-1.76.273-.142.473-.281.599-.418s.19-.331.19-.583V5.6a.936.936 0 0 0-.287-.683z"/></symbol></defs></svg>