<svg aria-hidden="true" style="position: absolute; width: 0; height: 0; overflow: hidden;" version="1.1" xmlns="http://www.w3.org/2000/svg" xmlns:xlink="http://www.w3.org/1999/xlink">
<defs>
<symbol id="icon-logo-facebook" viewBox="0 0 33 32">
<path d="M32.421 16.098c0-8.891-7.163-16.098-16-16.098s-16 7.207-16 16.098c0 8.035 5.851 14.695 13.5 15.902v-11.249h-4.062v-4.653h4.062v-3.547c0-4.035 2.389-6.263 6.043-6.263 1.751 0 3.582 0.314 3.582 0.314v3.962h-2.018c-1.988 0-2.607 1.241-2.607 2.514v3.020h4.437l-0.709 4.653h-3.728v11.249c7.649-1.208 13.5-7.867 13.5-15.902z"></path>
</symbol>
<symbol id="icon-close" viewBox="0 0 32 32">
<path stroke-linejoin="miter" stroke-linecap="butt" stroke-miterlimit="4" stroke-width="2" d="M7 7l18 18"></path>
<path stroke-linejoin="miter" stroke-linecap="butt" stroke-miterlimit="4" stroke-width="2" d="M25 7l-18 18"></path>
</symbol>
<symbol id="icon-close-modal" viewBox="0 0 32 32">
<path  d="M7 7l18 18"></path>
<path   d="M25 7l-18 18"></path>
</symbol>
<symbol id="icon-court" viewBox="0 0 32 32">
<path d="M20.176 10.194c0.366 0.366 0.959 0.367 1.325 0l1.304-1.304c0.366-0.366 0.364-0.959 0-1.325l-3.291-3.29c-0.365-0.366-0.958-0.366-1.324 0l-1.305 1.304c-0.365 0.366-0.365 0.959 0 1.324l3.291 3.292z"></path>
<path d="M12.383 18.134c0.366 0.364 0.959 0.364 1.324 0l1.304-1.305c0.366-0.365 0.366-0.959 0-1.325l-3.291-3.291c-0.366-0.365-0.959-0.366-1.325 0l-1.304 1.304c-0.366 0.366-0.365 0.959 0 1.325l3.292 3.292z"></path>
<path d="M27.324 18.447l-1.323-1.325c-0.367-0.365-0.959-0.365-1.324 0l-0.581 0.58-5.602-5.604 1.213-1.214-3.366-3.365-3.947 3.946 3.366 3.367 1.189-1.187 5.601 5.603-0.524 0.524c-0.366 0.364-0.367 0.958 0 1.324l1.323 1.324c0.367 0.367 0.959 0.367 1.325 0l2.649-2.648c0.366-0.366 0.366-0.959 0-1.325z"></path>
<path d="M17.538 22.471c0-0.599-0.486-1.087-1.087-1.087h-8.484c-0.6 0-1.087 0.487-1.087 1.087v1.764h-2.381v3.695h15.279v-3.695h-2.241v-1.764z"></path>
</symbol>
<symbol id="icon-protection" viewBox="0 0 32 32">
<path d="M20.616 18.848c1.176 0 2.339 0.294 3.363 0.851 0.186 0.1 0.357 0.22 0.531 0.335 1.681-3.29 2.568-6.769 2.568-10.164 0-0.191 0-0.388-0.006-0.585-0.012-0.277-0.209-0.517-0.486-0.578-3.717-0.812-7.083-2.825-9.729-5.815l-0.394-0.449c-0.117-0.135-0.283-0.209-0.462-0.209-0.191-0.025-0.338 0.068-0.455 0.197l-0.603 0.665c-2.511 2.763-5.674 4.671-9.145 5.52l-0.4 0.098c-0.271 0.062-0.462 0.302-0.468 0.578-0.222 8.652 4.886 14.874 7.089 17.151 0.596 0.612 1.261 1.221 1.894 1.724-0.237-0.715-0.374-1.468-0.374-2.241 0-3.902 3.175-7.077 7.077-7.077z"></path>
<path d="M23.391 20.781c-0.849-0.462-1.809-0.702-2.775-0.702-3.225 0-5.846 2.622-5.846 5.846 0 1.089 0.295 2.154 0.862 3.065 1.077 1.742 2.935 2.782 4.985 2.782 3.218 0 5.846-2.622 5.846-5.846 0-2.154-1.175-4.123-3.071-5.145zM23.61 25.147l-4.572 3.558-1.561-2.442c-0.183-0.286-0.099-0.667 0.187-0.85s0.667-0.099 0.85 0.187l0.834 1.304 3.507-2.729c0.268-0.209 0.655-0.161 0.864 0.108s0.16 0.655-0.108 0.864z"></path>
</symbol>
<symbol id="icon-trust" viewBox="0 0 32 32">
<path d="M21.003 28h-9.5v3h9.5v-3z"></path>
<path d="M21.003 28h-9.5v3h9.5v-3z"></path>
<path d="M7.586 1.226l-6.718 6.718 1.768 1.768 6.718-6.718-1.768-1.768z"></path>
<path d="M7.586 1.226l-6.718 6.718 1.768 1.768 6.718-6.718-1.768-1.768z"></path>
<path d="M24.556 1.161l-1.768 1.768 6.718 6.718 1.768-1.768-6.718-6.718z"></path>
<path d="M24.556 1.161l-1.768 1.768 6.718 6.718 1.768-1.768-6.718-6.718z"></path>
<path d="M22.278 4.853l-1.346-0.057c-0.388-0.055-0.784-0.019-1.155 0.106s-0.709 0.333-0.986 0.61l-2.752 2.752-2.877-2.877c-0.25-0.244-0.561-0.415-0.901-0.495s-0.695-0.066-1.028 0.041c-0.314 0.095-0.647 0.104-0.965 0.024s-0.608-0.244-0.84-0.476l-0.427-0.427-5.303 5.303 0.864 0.864-0.057 1.346c-0.055 0.388-0.019 0.783 0.106 1.155s0.333 0.709 0.61 0.986l4.806 4.806c0.064-0.631 0.367-1.214 0.845-1.629l-1.498-1.498 0.354-0.354 1.564 1.564c0.222-0.126 0.462-0.217 0.711-0.27v-1.847l-0.861-0.861 0.354-0.354 0.508 0.508v-2.675c-0.006-0.442 0.151-0.871 0.441-1.205s0.692-0.55 1.13-0.607c0.165-0.016 0.332-0.008 0.495 0.022l-0.615-0.615 0.354-0.354 0.898 0.898c0.159-0.308 0.405-0.563 0.708-0.732s0.648-0.247 0.994-0.222c0.417 0.049 0.805 0.242 1.095 0.546s0.464 0.7 0.493 1.12c0.284-0.135 0.599-0.192 0.913-0.166 0.445 0.053 0.855 0.27 1.15 0.609s0.453 0.774 0.445 1.223v1.712c0.455 0.095 0.875 0.315 1.212 0.635s0.578 0.728 0.696 1.177l1.394-1.394 0.354 0.354-1.658 1.658c0 0.007 0.002 0.013 0.002 0.020v1.66c0.449-0.047 0.869-0.246 1.189-0.564l3.42-3.42c0.244-0.25 0.415-0.561 0.495-0.901s0.066-0.695-0.041-1.028c-0.095-0.314-0.104-0.647-0.024-0.965s0.244-0.608 0.476-0.84l0.427-0.427-5.303-5.303-0.864 0.864z"></path>
<path d="M22.278 4.853l-1.346-0.057c-0.388-0.055-0.784-0.019-1.155 0.106s-0.709 0.333-0.986 0.61l-2.752 2.752-2.877-2.877c-0.25-0.244-0.561-0.415-0.901-0.495s-0.695-0.066-1.028 0.041c-0.314 0.095-0.647 0.104-0.965 0.024s-0.608-0.244-0.84-0.476l-0.427-0.427-5.303 5.303 0.864 0.864-0.057 1.346c-0.055 0.388-0.019 0.783 0.106 1.155s0.333 0.709 0.61 0.986l4.806 4.806c0.064-0.631 0.367-1.214 0.845-1.629l-1.498-1.498 0.354-0.354 1.564 1.564c0.222-0.126 0.462-0.217 0.711-0.27v-1.847l-0.861-0.861 0.354-0.354 0.508 0.508v-2.675c-0.006-0.442 0.151-0.871 0.441-1.205s0.692-0.55 1.13-0.607c0.165-0.016 0.332-0.008 0.495 0.022l-0.615-0.615 0.354-0.354 0.898 0.898c0.159-0.308 0.405-0.563 0.708-0.732s0.648-0.247 0.994-0.222c0.417 0.049 0.805 0.242 1.095 0.546s0.464 0.7 0.493 1.12c0.284-0.135 0.599-0.192 0.913-0.166 0.445 0.053 0.855 0.27 1.15 0.609s0.453 0.774 0.445 1.223v1.712c0.455 0.095 0.875 0.315 1.212 0.635s0.578 0.728 0.696 1.177l1.394-1.394 0.354 0.354-1.658 1.658c0 0.007 0.002 0.013 0.002 0.020v1.66c0.449-0.047 0.869-0.246 1.189-0.564l3.42-3.42c0.244-0.25 0.415-0.561 0.495-0.901s0.066-0.695-0.041-1.028c-0.095-0.314-0.104-0.647-0.024-0.965s0.244-0.608 0.476-0.84l0.427-0.427-5.303-5.303-0.864 0.864z"></path>
<path d="M14.94 10.845c-0.038-0.325-0.202-0.622-0.457-0.826s-0.58-0.301-0.906-0.268c-0.316 0.044-0.604 0.202-0.811 0.444s-0.317 0.552-0.31 0.871v5.679c-0.53 0-1.039 0.211-1.414 0.586s-0.586 0.884-0.586 1.414v4.837c0.004 0.349 0.103 0.691 0.287 0.988s0.445 0.538 0.756 0.698c0.289 0.154 0.531 0.384 0.7 0.665s0.258 0.603 0.258 0.931v0.604h7.5v-1.222l0.992-0.911c0.313-0.236 0.567-0.541 0.742-0.892s0.266-0.737 0.266-1.129v-7.568c0-0.53-0.211-1.039-0.586-1.414s-0.884-0.586-1.414-0.586v-2.161c0.009-0.324-0.103-0.639-0.313-0.885s-0.504-0.406-0.825-0.449c-0.315-0.028-0.629 0.065-0.878 0.26s-0.415 0.477-0.463 0.79h0.229v7.722h-0.5v-7.722h0.25v-1.216c0.009-0.324-0.103-0.639-0.313-0.885s-0.504-0.406-0.825-0.449c-0.173-0.015-0.347 0.005-0.512 0.061s-0.316 0.145-0.444 0.262c-0.128 0.117-0.23 0.26-0.3 0.418s-0.106 0.331-0.106 0.504v0.851h0.25v7.722h-0.5v-7.722h0.234zM12.656 21.020h-0.5v-4h0.5v4zM19.706 13.899h0.5v5.222h-0.5v-5.222z"></path>
<path d="M14.94 10.845c-0.038-0.325-0.202-0.622-0.457-0.826s-0.58-0.301-0.906-0.268c-0.316 0.044-0.604 0.202-0.811 0.444s-0.317 0.552-0.31 0.871v5.679c-0.53 0-1.039 0.211-1.414 0.586s-0.586 0.884-0.586 1.414v4.837c0.004 0.349 0.103 0.691 0.287 0.988s0.445 0.538 0.756 0.698c0.289 0.154 0.531 0.384 0.7 0.665s0.258 0.603 0.258 0.931v0.604h7.5v-1.222l0.992-0.911c0.313-0.236 0.567-0.541 0.742-0.892s0.266-0.737 0.266-1.129v-7.568c0-0.53-0.211-1.039-0.586-1.414s-0.884-0.586-1.414-0.586v-2.161c0.009-0.324-0.103-0.639-0.313-0.885s-0.504-0.406-0.825-0.449c-0.315-0.028-0.629 0.065-0.878 0.26s-0.415 0.477-0.463 0.79h0.229v7.722h-0.5v-7.722h0.25v-1.216c0.009-0.324-0.103-0.639-0.313-0.885s-0.504-0.406-0.825-0.449c-0.173-0.015-0.347 0.005-0.512 0.061s-0.316 0.145-0.444 0.262c-0.128 0.117-0.23 0.26-0.3 0.418s-0.106 0.331-0.106 0.504v0.851h0.25v7.722h-0.5v-7.722h0.234zM12.656 21.020h-0.5v-4h0.5v4zM19.706 13.899h0.5v5.222h-0.5v-5.222z"></path>
</symbol>
<symbol id="icon-coprorate" viewBox="0 0 32 32">
<path d="M30.263 18.864c-0.344-0.142-0.706-0.215-1.076-0.215-0.816 0-1.57 0.348-2.093 0.932l-2.35-0.973c0.247-0.827 0.38-1.702 0.38-2.607s-0.133-1.781-0.38-2.607l2.35-0.973c0.523 0.584 1.277 0.932 2.093 0.932 0.37 0 0.732-0.072 1.076-0.215 1.433-0.594 2.116-2.242 1.522-3.675-0.437-1.055-1.457-1.737-2.599-1.737-0.37 0-0.732 0.072-1.076 0.215-1.129 0.468-1.792 1.591-1.732 2.747l-2.353 0.975c-0.845-1.557-2.13-2.842-3.687-3.687l0.974-2.352c0.049 0.003 0.099 0.004 0.148 0.004 1.142 0 2.162-0.682 2.599-1.737 0.593-1.433-0.089-3.081-1.522-3.675-0.344-0.142-0.706-0.214-1.076-0.214-1.142 0-2.162 0.682-2.599 1.737-0.468 1.129-0.142 2.392 0.718 3.167l-0.974 2.351c-0.827-0.247-1.702-0.38-2.607-0.38s-1.781 0.133-2.607 0.38l-0.974-2.351c0.86-0.775 1.185-2.038 0.718-3.167-0.437-1.055-1.457-1.737-2.599-1.737-0.37 0-0.732 0.072-1.076 0.215-1.433 0.593-2.116 2.242-1.522 3.675 0.437 1.055 1.457 1.737 2.599 1.737 0.050 0 0.099-0.002 0.148-0.004l0.974 2.352c-1.557 0.845-2.842 2.13-3.687 3.687l-2.353-0.975c0.060-1.156-0.603-2.279-1.732-2.747-0.344-0.142-0.706-0.215-1.076-0.215-1.142 0-2.162 0.682-2.599 1.737-0.593 1.433 0.089 3.081 1.522 3.675 0.344 0.142 0.706 0.215 1.076 0.215 0.816 0 1.569-0.348 2.093-0.932l2.35 0.973c-0.247 0.827-0.38 1.702-0.38 2.607s0.133 1.781 0.38 2.607l-2.35 0.973c-0.523-0.583-1.277-0.932-2.093-0.932-0.37 0-0.732 0.072-1.076 0.215-1.433 0.593-2.116 2.242-1.522 3.675 0.437 1.055 1.457 1.737 2.599 1.737 0.37 0 0.732-0.072 1.076-0.215 1.129-0.468 1.792-1.591 1.732-2.747l2.353-0.975c0.845 1.557 2.13 2.842 3.687 3.687l-0.974 2.352c-0.049-0.003-0.098-0.004-0.148-0.004-1.142 0-2.162 0.682-2.599 1.737-0.593 1.433 0.089 3.081 1.522 3.675 0.344 0.142 0.706 0.215 1.076 0.215 1.142 0 2.162-0.682 2.599-1.737 0.468-1.129 0.142-2.392-0.718-3.167l0.974-2.351c0.827 0.247 1.702 0.38 2.607 0.38s1.781-0.133 2.607-0.38l0.974 2.351c-0.86 0.775-1.185 2.038-0.718 3.167 0.437 1.055 1.457 1.737 2.599 1.737 0.37 0 0.732-0.072 1.076-0.215 1.433-0.593 2.116-2.242 1.522-3.675-0.437-1.055-1.457-1.737-2.599-1.737-0.049 0-0.099 0.002-0.148 0.004l-0.974-2.352c1.557-0.845 2.842-2.13 3.687-3.687l2.353 0.975c-0.060 1.156 0.603 2.279 1.732 2.747 0.344 0.142 0.706 0.215 1.076 0.215 1.142 0 2.162-0.682 2.599-1.737 0.594-1.433-0.089-3.081-1.522-3.675zM16 23.25c-3.998 0-7.25-3.252-7.25-7.25s3.252-7.25 7.25-7.25c3.998 0 7.25 3.252 7.25 7.25s-3.252 7.25-7.25 7.25z"></path>
<path d="M30.263 18.864c-0.344-0.142-0.706-0.215-1.076-0.215-0.816 0-1.57 0.348-2.093 0.932l-2.35-0.973c0.247-0.827 0.38-1.702 0.38-2.607s-0.133-1.781-0.38-2.607l2.35-0.973c0.523 0.584 1.277 0.932 2.093 0.932 0.37 0 0.732-0.072 1.076-0.215 1.433-0.594 2.116-2.242 1.522-3.675-0.437-1.055-1.457-1.737-2.599-1.737-0.37 0-0.732 0.072-1.076 0.215-1.129 0.468-1.792 1.591-1.732 2.747l-2.353 0.975c-0.845-1.557-2.13-2.842-3.687-3.687l0.974-2.352c0.049 0.003 0.099 0.004 0.148 0.004 1.142 0 2.162-0.682 2.599-1.737 0.593-1.433-0.089-3.081-1.522-3.675-0.344-0.142-0.706-0.214-1.076-0.214-1.142 0-2.162 0.682-2.599 1.737-0.468 1.129-0.142 2.392 0.718 3.167l-0.974 2.351c-0.827-0.247-1.702-0.38-2.607-0.38s-1.781 0.133-2.607 0.38l-0.974-2.351c0.86-0.775 1.185-2.038 0.718-3.167-0.437-1.055-1.457-1.737-2.599-1.737-0.37 0-0.732 0.072-1.076 0.215-1.433 0.593-2.116 2.242-1.522 3.675 0.437 1.055 1.457 1.737 2.599 1.737 0.050 0 0.099-0.002 0.148-0.004l0.974 2.352c-1.557 0.845-2.842 2.13-3.687 3.687l-2.353-0.975c0.060-1.156-0.603-2.279-1.732-2.747-0.344-0.142-0.706-0.215-1.076-0.215-1.142 0-2.162 0.682-2.599 1.737-0.593 1.433 0.089 3.081 1.522 3.675 0.344 0.142 0.706 0.215 1.076 0.215 0.816 0 1.569-0.348 2.093-0.932l2.35 0.973c-0.247 0.827-0.38 1.702-0.38 2.607s0.133 1.781 0.38 2.607l-2.35 0.973c-0.523-0.583-1.277-0.932-2.093-0.932-0.37 0-0.732 0.072-1.076 0.215-1.433 0.593-2.116 2.242-1.522 3.675 0.437 1.055 1.457 1.737 2.599 1.737 0.37 0 0.732-0.072 1.076-0.215 1.129-0.468 1.792-1.591 1.732-2.747l2.353-0.975c0.845 1.557 2.13 2.842 3.687 3.687l-0.974 2.352c-0.049-0.003-0.098-0.004-0.148-0.004-1.142 0-2.162 0.682-2.599 1.737-0.593 1.433 0.089 3.081 1.522 3.675 0.344 0.142 0.706 0.215 1.076 0.215 1.142 0 2.162-0.682 2.599-1.737 0.468-1.129 0.142-2.392-0.718-3.167l0.974-2.351c0.827 0.247 1.702 0.38 2.607 0.38s1.781-0.133 2.607-0.38l0.974 2.351c-0.86 0.775-1.185 2.038-0.718 3.167 0.437 1.055 1.457 1.737 2.599 1.737 0.37 0 0.732-0.072 1.076-0.215 1.433-0.593 2.116-2.242 1.522-3.675-0.437-1.055-1.457-1.737-2.599-1.737-0.049 0-0.099 0.002-0.148 0.004l-0.974-2.352c1.557-0.845 2.842-2.13 3.687-3.687l2.353 0.975c-0.060 1.156 0.603 2.279 1.732 2.747 0.344 0.142 0.706 0.215 1.076 0.215 1.142 0 2.162-0.682 2.599-1.737 0.594-1.433-0.089-3.081-1.522-3.675zM16 23.25c-3.998 0-7.25-3.252-7.25-7.25s3.252-7.25 7.25-7.25c3.998 0 7.25 3.252 7.25 7.25s-3.252 7.25-7.25 7.25z"></path>
<path d="M16 10.625c-2.964 0-5.375 2.411-5.375 5.375s2.411 5.375 5.375 5.375c2.964 0 5.375-2.411 5.375-5.375s-2.411-5.375-5.375-5.375zM16.938 18.063h-1.875v-4.125h1.875v4.125z"></path>
<path d="M16 10.625c-2.964 0-5.375 2.411-5.375 5.375s2.411 5.375 5.375 5.375c2.964 0 5.375-2.411 5.375-5.375s-2.411-5.375-5.375-5.375zM16.938 18.063h-1.875v-4.125h1.875v4.125z"></path>
</symbol>
<symbol id="icon-support" viewBox="0 0 32 32">
<path d="M26.726 17.538v8.648c0 1.547-1.212 2.814-2.694 2.814h-16.047c-1.482 0-2.694-1.268-2.694-2.814v-8.648h8.333v3.755l2.384 1.567 2.384-1.567v-3.755h8.333z"></path>
<path d="M14.459 17.538v3.304l1.549 1.018 1.549-1.018v-3.304h-3.098z"></path>
<path d="M6.037 7.571h19.943c0.941 0 1.71 0.854 1.71 1.898v5.127c0 1.044-0.769 1.898-1.71 1.898h-19.943c-0.941 0-1.71-0.854-1.71-1.898v-5.127c0-1.044 0.769-1.898 1.71-1.898z"></path>
<path d="M11.856 2.978h8.305c0.772 0 1.403 0.631 1.403 1.403v2.189h-1.779v-1.293c0-0.349-0.285-0.635-0.634-0.635h-6.286c-0.349 0-0.634 0.286-0.634 0.635v1.293h-1.779v-2.189c0-0.772 0.631-1.403 1.403-1.403z"></path>
</symbol>
<symbol id="icon-ecommerce" viewBox="0 0 32 32">
<path d="M11.867 14.063c0.552 0 1-0.448 1-1v-3.9c0-1.744 1.418-3.162 3.162-3.162s3.163 1.419 3.163 3.162v3.9c0 0.552 0.448 1 1 1s1-0.448 1-1v-3.9c0-2.846-2.316-5.162-5.162-5.162s-5.162 2.316-5.162 5.162v3.9c0 0.552 0.448 1 1 1z"></path>
<path d="M27.5 11.815h-5.308v1.247c0 1.103-0.897 2-2 2s-2-0.897-2-2v-1.247h-4.325v1.247c0 1.103-0.897 2-2 2s-2-0.897-2-2v-1.247h-5.367c-0.276 0-0.447 0.217-0.381 0.486l3.499 14.248c0.211 0.801 1.054 1.451 1.882 1.451h13c0.829 0 1.671-0.649 1.883-1.45l3.498-14.248c0.066-0.268-0.105-0.486-0.381-0.486z"></path>
<path d="M14.3 17.2c0-0.387 0.313-0.7 0.7-0.7s0.7 0.313 0.7 0.7v2.8c0-0.387 0.313-0.7 0.7-0.7s0.7 0.313 0.7 0.7v0.838c0.006-0.381 0.317-1.188 0.7-1.188 0.387 0 0.7 0.313 0.7 0.7 0 0 0.021 0.521 0.067 0.552 0.112-0.237 0.354-0.902 0.633-0.902 0.387 0 0.7 0.313 0.7 0.7v3.5c0 0.773-0.627 1.4-1.4 1.4h-2.34c-0.743 0-1.455-0.295-1.98-0.82l-1.105-1.105-1.575-0.705c0.003-0.668 0.526-0.87 1.050-0.87 0.451 0 0.857 0.070 1.75 0.525l0-5.425z"></path>
</symbol>
<symbol id="icon-slash" viewBox="0 0 15 32">
<path d="M10.742 0h3.966l-10.332 32h-3.966l10.332-32z"></path>
</symbol>
<symbol id="icon-logo-legal" viewBox="0 0 68 32">
<path fill="#f0145a" style="fill: var(--color1, #f0145a)" d="M2.563 0h-2.563v18.514h2.563v-6.869c0-1.162 0.289-2.079 0.867-2.724s1.37-0.981 2.35-0.981c0.842 0 1.546 0.31 2.111 0.904 0.565 0.607 0.854 1.368 0.854 2.285v7.398h2.576v-7.398c0-1.704-0.465-3.047-1.395-4.054s-2.149-1.511-3.632-1.511c-0.427 0-0.854 0.052-1.269 0.168-0.427 0.116-0.767 0.245-1.043 0.387s-0.54 0.297-0.779 0.478c-0.239 0.181-0.402 0.31-0.478 0.387s-0.138 0.129-0.163 0.168v-7.153z"></path>
<path fill="#fff" style="fill: var(--color2, #fff)" d="M17.053 0h-2.643v18.499h2.643v-18.499z"></path>
<path fill="#fff" style="fill: var(--color2, #fff)" d="M32.64 13.081l0.132-1.321c0-1.771-0.581-3.251-1.771-4.44s-2.669-1.771-4.44-1.771-3.303 0.634-4.572 1.903c-1.268 1.268-1.903 2.775-1.903 4.572 0 1.85 0.661 3.435 1.956 4.757s2.854 1.982 4.651 1.982c0.687 0 1.321-0.106 1.956-0.291 0.634-0.211 1.163-0.423 1.533-0.634 0.396-0.238 0.793-0.502 1.136-0.793s0.581-0.502 0.687-0.634c0.106-0.132 0.185-0.211 0.238-0.291l-1.718-1.718-0.396 0.502c-0.264 0.317-0.713 0.634-1.348 0.978-0.661 0.344-1.348 0.502-2.088 0.502-1.031 0-1.903-0.317-2.643-0.978s-1.189-1.427-1.321-2.326h9.91zM26.562 7.795c0.978 0 1.771 0.291 2.431 0.846 0.634 0.581 1.031 1.295 1.189 2.193h-7.347c0.238-0.899 0.661-1.612 1.321-2.193 0.634-0.555 1.453-0.846 2.405-0.846z"></path>
<path fill="#fff" style="fill: var(--color2, #fff)" d="M44.964 17.732c0 1.163-0.343 2.114-1.057 2.854-0.687 0.713-1.559 1.084-2.643 1.084-0.476 0-0.951-0.079-1.401-0.212s-0.793-0.291-1.083-0.476c-0.291-0.185-0.555-0.37-0.819-0.608-0.238-0.238-0.396-0.396-0.476-0.476s-0.132-0.159-0.185-0.211l-1.718 1.718 0.211 0.264c0.132 0.185 0.37 0.423 0.687 0.687 0.317 0.238 0.687 0.502 1.11 0.766 0.423 0.238 0.951 0.449 1.612 0.634s1.348 0.291 2.061 0.291c1.797 0 3.277-0.608 4.519-1.823 1.216-1.242 1.823-2.722 1.823-4.519v-11.892h-2.643v1.321l-0.449-0.396c-0.291-0.264-0.74-0.529-1.374-0.793s-1.321-0.396-2.008-0.396c-1.612 0-2.986 0.608-4.175 1.85s-1.771 2.722-1.771 4.492c0 1.771 0.581 3.251 1.771 4.493s2.563 1.85 4.175 1.85c0.449 0 0.872-0.053 1.321-0.159 0.423-0.132 0.766-0.264 1.057-0.396s0.555-0.291 0.793-0.476c0.238-0.185 0.423-0.317 0.476-0.37l0.185-0.185v1.083zM37.829 11.892c0-1.11 0.344-2.035 1.057-2.801s1.559-1.163 2.511-1.163c0.951 0 1.797 0.396 2.51 1.163 0.687 0.766 1.057 1.691 1.057 2.801s-0.37 2.035-1.057 2.801c-0.714 0.766-1.559 1.163-2.51 1.163s-1.797-0.396-2.511-1.163-1.057-1.691-1.057-2.801z"></path>
<path fill="#fff" style="fill: var(--color2, #fff)" d="M61.401 18.498v-8.192c0-1.348-0.502-2.484-1.48-3.383-0.978-0.925-2.246-1.374-3.805-1.374-0.608 0-1.216 0.079-1.797 0.238-0.581 0.185-1.057 0.37-1.401 0.581s-0.687 0.449-1.004 0.74c-0.317 0.264-0.502 0.449-0.608 0.555-0.079 0.106-0.159 0.185-0.211 0.264l1.718 1.718 0.344-0.449c0.211-0.291 0.581-0.555 1.136-0.846s1.163-0.423 1.823-0.423c0.766 0 1.401 0.238 1.903 0.687s0.74 1.031 0.74 1.691l-4.625 0.793c-1.136 0.185-2.061 0.634-2.695 1.348-0.661 0.713-1.004 1.586-1.004 2.616 0 0.978 0.423 1.824 1.268 2.563 0.872 0.766 1.929 1.136 3.224 1.136 0.449 0 0.872-0.053 1.295-0.185 0.449-0.106 0.793-0.238 1.083-0.37s0.555-0.291 0.793-0.476c0.238-0.185 0.396-0.317 0.502-0.37 0.079-0.079 0.132-0.159 0.159-0.185v1.321h2.643zM55.323 16.384c-0.687 0-1.242-0.159-1.639-0.476-0.423-0.317-0.608-0.687-0.608-1.11 0-0.449 0.132-0.846 0.423-1.136s0.687-0.502 1.163-0.581l4.096-0.661v0.264c0 1.189-0.291 2.088-0.899 2.748-0.608 0.634-1.453 0.951-2.537 0.951z"></path>
<path fill="#fff" style="fill: var(--color2, #fff)" d="M67.233 0h-2.643v18.499h2.643v-18.499z"></path>
<path fill="#fff" style="fill: var(--color2, #fff)" d="M0 27.472h0.827v2.9h1.792v0.674h-2.619v-3.574z"></path>
<path fill="#fff" style="fill: var(--color2, #fff)" d="M8.017 30.28h-1.659l-0.317 0.766h-0.847l1.593-3.574h0.817l1.598 3.574h-0.868l-0.317-0.766zM7.757 29.652l-0.567-1.368-0.567 1.368h1.133z"></path>
<path fill="#fff" style="fill: var(--color2, #fff)" d="M17.331 27.472l-1.169 3.574h-0.888l-0.786-2.42-0.812 2.42h-0.883l-1.174-3.574h0.858l0.807 2.512 0.842-2.512h0.766l0.817 2.532 0.832-2.532h0.791z"></path>
<path fill="#fff" style="fill: var(--color2, #fff)" d="M26.129 31.107c-0.364 0-0.694-0.078-0.99-0.235-0.293-0.16-0.524-0.379-0.694-0.659-0.167-0.282-0.25-0.601-0.25-0.955s0.083-0.67 0.25-0.95c0.17-0.283 0.402-0.502 0.694-0.659 0.296-0.16 0.628-0.24 0.995-0.24 0.31 0 0.589 0.054 0.837 0.163 0.252 0.109 0.463 0.265 0.633 0.47l-0.531 0.49c-0.242-0.279-0.541-0.419-0.899-0.419-0.221 0-0.419 0.049-0.592 0.148-0.174 0.095-0.31 0.23-0.408 0.403-0.095 0.174-0.143 0.371-0.143 0.592s0.048 0.419 0.143 0.592c0.099 0.174 0.235 0.31 0.408 0.408 0.174 0.095 0.371 0.143 0.592 0.143 0.357 0 0.657-0.141 0.899-0.424l0.531 0.49c-0.17 0.208-0.381 0.366-0.633 0.475s-0.533 0.163-0.842 0.163z"></path>
<path fill="#fff" style="fill: var(--color2, #fff)" d="M32.371 31.107c-0.371 0-0.706-0.080-1.006-0.24-0.296-0.16-0.529-0.38-0.699-0.659-0.167-0.282-0.25-0.599-0.25-0.95s0.083-0.665 0.25-0.945c0.17-0.282 0.403-0.504 0.699-0.664 0.3-0.16 0.635-0.24 1.006-0.24s0.705 0.080 1.001 0.24c0.296 0.16 0.529 0.381 0.699 0.664 0.17 0.279 0.255 0.594 0.255 0.945s-0.085 0.667-0.255 0.95c-0.17 0.279-0.403 0.499-0.699 0.659s-0.63 0.24-1.001 0.24zM32.371 30.403c0.211 0 0.402-0.048 0.572-0.143 0.17-0.099 0.303-0.235 0.398-0.408 0.099-0.174 0.148-0.371 0.148-0.592s-0.049-0.419-0.148-0.592c-0.095-0.174-0.228-0.308-0.398-0.403-0.17-0.099-0.361-0.148-0.572-0.148s-0.402 0.049-0.572 0.148c-0.17 0.095-0.305 0.23-0.403 0.403-0.095 0.174-0.143 0.371-0.143 0.592s0.048 0.419 0.143 0.592c0.099 0.174 0.233 0.31 0.403 0.408 0.17 0.095 0.361 0.143 0.572 0.143z"></path>
<path fill="#fff" style="fill: var(--color2, #fff)" d="M40.753 31.046l-0.005-2.144-1.052 1.766h-0.373l-1.047-1.72v2.098h-0.776v-3.574h0.684l1.338 2.221 1.317-2.221h0.679l0.010 3.574h-0.776z"></path>
<path fill="#fff" style="fill: var(--color2, #fff)" d="M46.476 27.472c0.316 0 0.59 0.053 0.822 0.158 0.235 0.105 0.415 0.255 0.541 0.449s0.189 0.424 0.189 0.689c0 0.262-0.063 0.492-0.189 0.689-0.126 0.194-0.306 0.344-0.541 0.449-0.231 0.102-0.505 0.153-0.822 0.153h-0.72v0.985h-0.827v-3.574h1.547zM46.43 29.387c0.248 0 0.437-0.053 0.567-0.158 0.129-0.109 0.194-0.262 0.194-0.459 0-0.201-0.065-0.354-0.194-0.459-0.129-0.109-0.318-0.163-0.567-0.163h-0.674v1.241h0.674z"></path>
<path fill="#fff" style="fill: var(--color2, #fff)" d="M53.345 30.28h-1.659l-0.316 0.766h-0.847l1.593-3.574h0.817l1.598 3.574h-0.868l-0.316-0.766zM53.085 29.652l-0.567-1.368-0.567 1.368h1.133z"></path>
<path fill="#fff" style="fill: var(--color2, #fff)" d="M60.73 27.472v3.574h-0.679l-1.782-2.17v2.17h-0.817v-3.574h0.684l1.777 2.17v-2.17h0.817z"></path>
<path fill="#fff" style="fill: var(--color2, #fff)" d="M65.844 29.78v1.266h-0.827v-1.276l-1.384-2.297h0.878l0.955 1.588 0.955-1.588h0.812l-1.389 2.308z"></path>
</symbol>
<symbol id="icon-h" viewBox="0 0 20 32">
<path fill="#000" style="fill: var(--color1, #000)" d="M5.87 13.617h7.488c2.151 0 3.946 0.918 5.063 2.468s1.15 4.138 0.499 6.162l-0.832 2.584c-0.347 1.079-1.974 6.182-2.291 7.168h-4.085c0 0 0.062 0.055 3.475-10.553 0.301-0.936 0.473-2.456 0-3.113s-1.27-1.046-2.325-1.046h-6.121c-1.202 0-2.267 0.782-2.639 1.936l1.767-5.607z"></path>
<path fill="#f0145a" style="fill: var(--color2, #f0145a)" d="M0.032 32h-3.994c3.399-10.673 6.837-21.333 10.256-32h3.988c-0.017 0.053-0.034 0.107-0.051 0.16-5.532 17.022-3.645 11.274-10.199 31.84z"></path>
</symbol>
<symbol id="icon-arrow" viewBox="0 0 30 32">
<path stroke-linejoin="miter" stroke-linecap="butt" stroke-miterlimit="4" stroke-width="4.9231" d="M8.615 4.923l11.077 11.077-11.077 11.077"></path>
</symbol>
<symbol id="icon-arrow2" viewBox="0 0 30 32">
<path stroke-linejoin="miter" stroke-linecap="butt" stroke-miterlimit="4" stroke-width="4.9231" d="M6.95 1.923l14.077 14.077-14.077 14.077"></path>
</symbol>

<symbol id="icon-arrow-down" viewBox="0 0 53 32">
<path stroke-linejoin="miter" stroke-linecap="butt" stroke-miterlimit="4" stroke-width="5.3333" d="M2.667 2.667l24 24 24-24"></path>
</symbol>
<symbol id="icon-star" viewBox="0 0 32 32">
<path d="M16.119 0.681c-8.424 0-15.278 6.854-15.278 15.278s6.854 15.279 15.278 15.279 15.278-6.854 15.278-15.279c0.001-8.424-6.853-15.278-15.278-15.278zM24.561 14.841v0.001l-4.423 3.2 1.703 5.206c0.027 0.081 0.041 0.168 0.041 0.257 0 0.455-0.368 0.824-0.823 0.824-0.181 0-0.347-0.058-0.482-0.156l-4.457-3.224-4.457 3.224c-0.135 0.098-0.302 0.156-0.482 0.156-0.455 0-0.824-0.369-0.824-0.824 0-0.089 0.015-0.175 0.042-0.257l1.704-5.206-4.423-3.201c-0.207-0.149-0.341-0.392-0.341-0.666 0-0.455 0.368-0.823 0.823-0.823h5.475l1.695-5.182c0.103-0.337 0.417-0.582 0.788-0.582s0.684 0.245 0.787 0.582l1.695 5.182h5.475c0.455 0 0.823 0.368 0.823 0.823-0.001 0.274-0.135 0.518-0.341 0.666z"></path>
</symbol>
<symbol id="icon-bag" viewBox="0 0 38 32">
<path d="M20.701 19.392v-0.812c0-0.99-0.802-1.792-1.791-1.792s-1.792 0.802-1.792 1.792v0.812c0 0.99 0.802 1.792 1.792 1.792 0.988 0 1.791-0.802 1.791-1.792z"></path>
<path d="M21.93 20.383c-0.397 1.3-1.593 2.254-3.020 2.254s-2.624-0.954-3.021-2.254h-12.341c-0.779 0-1.515-0.181-2.175-0.495v8.194c0 1.6 1.309 2.909 2.909 2.909h29.255c1.6 0 2.909-1.309 2.909-2.909v-8.193c-0.661 0.314-1.396 0.495-2.175 0.495l-12.34-0.001z"></path>
<path d="M34.149 5.669h-6.983c-0.422-2.637-2.706-4.66-5.46-4.66h-5.595c-2.754 0-5.038 2.023-5.46 4.66h-6.982c-1.667 0-3.031 1.309-3.031 2.909v6.715c0 1.607 1.303 2.909 2.909 2.909h12.204c0.041-0.837 0.401-1.589 0.969-2.133 0.017-0.017 0.038-0.030 0.056-0.046 0.126-0.116 0.257-0.225 0.4-0.319 0.051-0.034 0.109-0.057 0.162-0.088 0.118-0.068 0.234-0.138 0.361-0.191 0.1-0.041 0.207-0.065 0.312-0.097 0.090-0.027 0.176-0.063 0.27-0.081 0.203-0.041 0.413-0.063 0.628-0.063s0.425 0.023 0.628 0.063c0.093 0.019 0.179 0.055 0.269 0.081 0.105 0.031 0.212 0.055 0.312 0.097 0.127 0.052 0.242 0.122 0.36 0.19 0.054 0.031 0.112 0.055 0.164 0.089 0.143 0.094 0.273 0.203 0.399 0.319 0.018 0.017 0.039 0.030 0.057 0.047 0.569 0.544 0.927 1.296 0.969 2.133h12.204c1.607 0 2.909-1.303 2.909-2.909v-6.715c0.001-1.601-1.363-2.911-3.030-2.911zM13.452 5.669c0.371-1.121 1.416-1.937 2.66-1.937h5.595c1.244 0 2.289 0.817 2.66 1.937h-10.914z"></path>
</symbol>
<symbol id="icon-flag" viewBox="0 0 27 32">
<path d="M26.416 4.92c-0.193-0.192-0.421-0.289-0.683-0.289-0.131 0-0.407 0.107-0.826 0.319s-0.866 0.449-1.335 0.713c-0.47 0.262-1.027 0.5-1.669 0.713s-1.236 0.319-1.783 0.319c-0.505 0-0.951-0.096-1.335-0.289-1.274-0.597-2.382-1.042-3.322-1.335s-1.952-0.441-3.035-0.441c-1.87 0-3.999 0.608-6.387 1.822-0.493 0.246-0.846 0.436-1.074 0.575l-0.227-1.663c0.513-0.445 0.843-1.094 0.843-1.826 0-1.341-1.087-2.428-2.428-2.428s-2.428 1.087-2.428 2.428c0 0.875 0.467 1.635 1.161 2.063l3.28 24.051c0.098 0.716 0.71 1.235 1.414 1.235 0.064 0 0.129-0.004 0.195-0.013 0.782-0.107 1.329-0.827 1.222-1.609l-1.318-9.667c2.392-1.187 4.461-1.785 6.202-1.785 0.739 0 1.459 0.11 2.162 0.333s1.287 0.466 1.753 0.728c0.465 0.263 1.014 0.506 1.646 0.728 0.633 0.223 1.257 0.334 1.874 0.334 1.558 0 3.423-0.587 5.598-1.76 0.273-0.142 0.473-0.281 0.599-0.418s0.19-0.331 0.19-0.583v-11.575c0-0.262-0.095-0.49-0.287-0.683z"></path>
</symbol>
</defs>
</svg>
