<svg aria-hidden="true" style="position: absolute; width: 0; height: 0; overflow: hidden;" version="1.1" xmlns="http://www.w3.org/2000/svg" xmlns:xlink="http://www.w3.org/1999/xlink">
<defs>
<symbol id="icon-spacex" viewBox="0 0 48 32">
<path d="M4.347 16.664h-3.212v-0.797h4.142c-0.109-0.338-0.459-0.652-1.075-0.652h-3.007c-0.688 0-1.087 0.254-1.087 0.809v0.592c0 0.483 0.411 0.761 1.014 0.761h3.248v0.845h-4.371c0.109 0.459 0.459 0.7 1.087 0.7h3.273c0.688 0 1.026-0.266 1.026-0.833v-0.592c0-0.519-0.398-0.797-1.038-0.833zM10.904 15.227h-3.961v3.707h1.123v-1.425h2.922c0.809 0 1.256-0.278 1.256-0.93v-0.411c-0.012-0.604-0.519-0.942-1.34-0.942zM11.266 16.411c0 0.266-0.048 0.411-0.483 0.411h-2.717l0.012-0.966h2.657c0.483 0 0.543 0.145 0.543 0.398v0.157zM15.976 17.485h-2.391l-0.592 0.628h3.454l0.592 0.821h1.328l-2.862-3.864-0.676 0.833zM20.516 15.867h4.202c-0.109-0.435-0.531-0.652-1.135-0.652h-3.14c-0.543 0-1.063 0.217-1.063 0.809v2.077c0 0.592 0.519 0.809 1.063 0.809h3.176c0.725 0 0.978-0.205 1.099-0.7h-4.202zM29.645 17.099v-0.628h-3.393v2.463h5.011v-0.7h-3.876v-1.135zM26.373 15.227h5.060v0.652h-5.060zM34.548 15.227h-1.763l2.077 1.522c0.302-0.205 0.652-0.423 0.966-0.604zM37.108 17.123c-0.302 0.205-0.604 0.435-0.894 0.652l1.57 1.147h1.775z"></path>
<path d="M48 13.066c-9.66 0.555-14.129 4.685-15.131 5.663l-0.205 0.193h1.787c4.83-4.842 11.774-5.7 13.549-5.857z"></path>
</symbol>
<symbol id="icon-home" viewBox="0 0 32 32">
<path d="M32 18.451l-16-12.42-16 12.42v-5.064l16-12.42 16 12.42zM28 18v12h-8v-8h-8v8h-8v-12l12-9z"></path>
</symbol>
<symbol id="icon-spacex-1" viewBox="0 0 260 32">
<path d="M60.549 11.809h-21.932l-0.783 0.627v19.504h6.031v-7.363l0.548-0.548h16.136c4.073 0 5.953-1.096 5.953-3.916v-4.465c0-2.742-1.88-3.838-5.953-3.838zM60.549 19.016c0 1.331-0.862 1.567-2.82 1.567h-13.238l-0.627-0.548v-4.151l0.548-0.548h13.316c1.88 0 2.82 0.235 2.82 1.566l0 2.115zM77.624 15.491l5.248 7.676-0.313 0.705h-11.593l-2.977 3.682h17.232l1.253 0.705 2.663 3.682h6.971l-15.274-20.366zM146.789 28.023v-5.483l0.627-0.548h11.671v-3.447h-18.486v13.394h27.259v-3.447h-20.366zM140.601 11.809h27.494v3.76h-27.494zM109.975 15.412h22.167c-0.313-2.82-2.115-3.603-6.501-3.603h-15.901c-5.013 0-6.58 0.94-6.58 4.778v10.653c0 3.76 1.567 4.778 6.58 4.778h15.901c4.465 0 6.188-0.862 6.345-3.76h-22.011l-0.627-0.627v-11.749zM22.951 19.642h-16.057l-0.47-0.548v-3.447l0.47-0.392h21.697l0.313-0.705c-0.705-1.88-2.663-2.82-6.188-2.82h-15.118c-5.013 0-6.58 0.94-6.58 4.778v2.272c0 3.76 1.567 4.778 6.58 4.778h16.058l0.47 0.47v3.603l-0.392 0.548h-23.186s-0.548 0.313-0.548 0.392c0.392 2.663 2.193 3.368 6.501 3.368h16.449c5.013 0 6.658-0.94 6.658-4.778v-2.742c-0-3.76-1.645-4.778-6.658-4.778zM185.406 11.731h-9.086l-0.47 0.94 10.026 7.363c1.88-1.097 3.995-2.193 6.188-3.29zM193.552 25.517l8.851 6.423h9.086l0.392-0.862-13.159-9.634c-1.723 1.331-3.525 2.663-5.17 4.073z"></path>
<path d="M184.074 31.94h-8.225l-0.705-1.097c5.562-5.405 30.47-28.433 84.596-30.862 0 0-45.353 1.567-75.666 31.958z"></path>
</symbol>
</defs>
</svg>
